<?xml version="1.0" standalone="no"?>
<!DOCTYPE svg PUBLIC "-//W3C//DTD SVG 20010904//EN"
 "http://www.w3.org/TR/2001/REC-SVG-20010904/DTD/svg10.dtd">
<svg version="1.0" xmlns="http://www.w3.org/2000/svg"
 width="500.000000pt" height="500.000000pt" viewBox="0 0 500.000000 500.000000"
 preserveAspectRatio="xMidYMid meet">

<g transform="translate(0.000000,500.000000) scale(0.100000,-0.100000)"
fill="#000000" stroke="none">
<path d="M2345 4916 c-22 -7 -67 -25 -100 -40 -33 -15 -134 -56 -225 -91 -91
-35 -232 -91 -315 -125 -82 -34 -168 -68 -190 -75 -22 -7 -107 -41 -190 -74
-82 -34 -187 -75 -232 -92 -88 -33 -133 -66 -133 -99 0 -33 42 -67 111 -88 35
-11 95 -32 134 -46 38 -14 79 -26 91 -26 11 0 56 15 100 34 43 18 117 48 164
66 47 18 99 38 115 46 56 24 109 45 240 94 72 27 200 77 285 110 85 34 178 64
205 66 52 6 66 2 250 -70 219 -85 336 -130 412 -157 45 -16 115 -43 155 -60
40 -16 109 -44 153 -60 43 -17 85 -35 91 -40 25 -21 70 -27 102 -14 38 17 48
35 57 109 4 32 15 77 24 100 10 22 15 49 12 60 -7 17 -110 62 -311 136 -41 15
-142 54 -225 88 -82 33 -186 74 -230 91 -44 16 -156 60 -250 96 -182 71 -237
82 -300 61z"/>
<path d="M3719 4556 c-46 -15 -43 -37 11 -64 77 -39 85 -51 88 -151 l4 -88
-41 -47 c-41 -48 -47 -71 -32 -126 4 -16 -2 -48 -17 -90 -31 -84 -62 -206 -62
-241 0 -33 30 -54 61 -44 19 6 28 21 54 90 l7 20 8 -20 c5 -11 9 -32 9 -47 1
-15 11 -39 24 -53 19 -23 26 -25 48 -16 28 10 39 41 39 115 0 48 15 80 23 50
3 -11 10 -40 17 -66 16 -62 41 -85 75 -70 18 8 25 19 25 39 0 33 -39 174 -70
255 -13 37 -19 66 -14 80 14 45 5 80 -30 126 -35 45 -36 47 -36 139 0 78 -4
100 -21 131 -40 69 -105 99 -170 78z"/>
<path d="M2315 4344 c-27 -9 -111 -39 -185 -68 -222 -88 -350 -136 -358 -136
-4 0 -23 -8 -43 -17 -19 -10 -52 -25 -74 -33 -76 -29 -120 -55 -132 -80 -13
-26 -19 -284 -7 -314 7 -17 49 -22 59 -7 6 11 222 83 315 105 196 47 311 59
535 59 298 0 500 -32 773 -122 68 -23 129 -41 137 -41 30 0 36 97 6 124 -25
23 -180 86 -416 168 -110 38 -225 79 -255 90 -149 54 -281 70 -376 48 -60 -15
-86 -8 -92 24 -15 75 53 110 213 110 115 0 142 -6 310 -69 39 -15 90 -33 115
-40 65 -20 133 -45 145 -55 5 -4 26 -13 45 -18 19 -6 93 -31 164 -55 71 -25
135 -43 143 -40 28 11 9 47 -37 69 -97 48 -159 72 -470 184 -58 21 -134 50
-170 65 -158 65 -248 78 -345 49z"/>
<path d="M2315 3435 c-19 -19 -37 -49 -40 -67 -4 -18 -21 -60 -36 -92 -16 -33
-29 -63 -29 -68 0 -5 -20 -55 -44 -111 -24 -56 -67 -160 -96 -232 -29 -71 -79
-193 -112 -270 -33 -77 -73 -174 -90 -215 -17 -41 -66 -156 -108 -255 -43 -99
-95 -223 -115 -275 -21 -52 -42 -102 -46 -110 -21 -41 -84 -182 -104 -235 -19
-52 -159 -383 -185 -440 -5 -11 -30 -72 -55 -135 -120 -298 -203 -387 -379
-405 -86 -9 -111 -30 -102 -84 3 -20 13 -42 23 -48 13 -10 135 -13 530 -13
500 0 514 1 533 20 25 25 26 74 2 98 -15 15 -41 20 -121 25 -160 10 -238 56
-277 164 -33 95 1 251 107 479 19 42 35 63 51 68 13 3 301 6 641 6 l618 0 24
-25 c14 -13 25 -29 25 -36 0 -6 6 -25 14 -42 25 -55 46 -108 98 -247 28 -74
57 -151 64 -170 18 -47 17 -121 -1 -146 -17 -25 -53 -40 -117 -49 -71 -9 -101
-68 -62 -123 l15 -22 549 0 c609 0 580 -3 580 66 0 50 -26 70 -101 79 -166 19
-258 117 -375 400 -20 50 -59 142 -86 205 -27 63 -65 153 -83 200 -43 110 -89
216 -131 308 -19 40 -34 75 -34 78 0 6 -47 120 -117 284 -25 58 -51 121 -60
140 -8 19 -18 44 -23 55 -5 11 -30 72 -55 135 -26 63 -57 138 -69 165 -40 86
-74 167 -112 265 -20 52 -48 120 -61 150 -14 30 -36 78 -48 105 -12 28 -26 61
-30 75 -4 14 -17 48 -29 75 -13 28 -40 94 -62 149 -21 54 -51 111 -66 127 -24
27 -31 29 -103 29 -76 0 -78 -1 -110 -35z m-32 -648 c13 -20 90 -210 180 -442
17 -44 51 -129 75 -190 61 -149 120 -299 142 -361 10 -28 35 -89 55 -135 67
-152 95 -235 82 -248 -8 -8 -167 -11 -563 -11 -617 0 -589 -3 -559 67 10 21
72 175 140 343 68 168 146 359 173 425 27 66 67 167 90 225 22 58 54 134 70
170 16 36 32 78 36 94 8 33 43 86 56 86 4 0 14 -10 23 -23z"/>
<path d="M1113 3365 c-54 -16 -136 -68 -167 -106 -35 -41 -77 -131 -83 -178
-7 -55 14 -63 76 -29 25 14 59 28 75 32 33 8 101 52 133 87 30 33 73 118 73
144 0 50 -43 70 -107 50z"/>
<path d="M3652 3346 c-34 -75 86 -232 203 -266 22 -6 59 -22 82 -35 67 -37 80
-3 42 102 -39 107 -184 223 -277 223 -31 0 -41 -5 -50 -24z"/>
<path d="M581 3006 c-16 -25 -21 -50 -21 -97 0 -76 22 -130 79 -198 25 -30 41
-59 43 -81 4 -48 30 -50 78 -6 33 29 48 36 83 36 126 0 260 81 260 157 -1 41
-29 55 -98 50 -69 -5 -127 -31 -170 -76 -38 -40 -75 -57 -87 -39 -4 7 -8 34
-8 59 0 69 -27 145 -67 190 -43 48 -65 49 -92 5z"/>
<path d="M4187 2999 c-40 -46 -64 -108 -74 -186 -8 -75 -25 -85 -66 -41 -54
58 -111 88 -181 95 -79 7 -106 -5 -106 -49 0 -25 10 -42 50 -79 52 -49 129
-79 203 -79 49 0 84 -15 92 -39 3 -12 15 -26 26 -32 27 -14 47 3 55 50 4 20
22 53 42 75 75 84 100 211 56 286 -29 50 -54 50 -97 -1z"/>
<path d="M406 2508 c-33 -47 -9 -168 48 -242 14 -19 50 -48 80 -65 40 -22 60
-41 70 -66 8 -19 22 -38 31 -41 17 -7 55 22 55 41 0 18 30 39 90 64 69 29 125
81 156 146 27 58 30 97 9 115 -23 19 -94 7 -143 -24 -40 -25 -59 -47 -115
-136 -13 -19 -29 -35 -37 -35 -15 0 -17 4 -70 117 -32 70 -107 148 -141 148
-10 0 -25 -10 -33 -22z"/>
<path d="M4370 2494 c-58 -45 -96 -103 -117 -173 -20 -71 -19 -70 -44 -64 -12
3 -29 25 -42 52 -26 56 -95 127 -142 147 -42 17 -97 18 -113 2 -31 -31 -5
-111 62 -185 35 -38 60 -56 108 -73 66 -24 98 -45 98 -65 0 -6 10 -21 23 -33
22 -21 24 -21 38 -5 8 10 20 30 27 45 6 15 35 42 65 61 90 58 136 134 137 229
0 59 -14 98 -37 98 -10 0 -38 -16 -63 -36z"/>
<path d="M854 1998 c-59 -45 -102 -113 -114 -180 -17 -87 -42 -89 -100 -10
-94 127 -234 195 -260 126 -13 -33 -1 -76 35 -134 50 -80 112 -122 197 -134
38 -6 53 -14 77 -42 37 -46 71 -44 83 3 6 23 25 45 63 74 67 51 107 125 113
211 7 97 -33 133 -94 86z"/>
<path d="M3915 1993 c-13 -20 -16 -39 -12 -80 10 -93 55 -165 150 -236 24 -18
37 -36 37 -51 0 -52 54 -56 84 -6 15 27 64 50 104 50 7 0 35 11 62 25 58 29
112 96 135 166 16 46 16 52 1 74 -11 16 -26 25 -43 25 -57 0 -182 -86 -213
-146 -18 -38 -50 -74 -65 -74 -6 0 -23 38 -39 85 -23 73 -36 94 -81 140 -61
63 -92 71 -120 28z"/>
<path d="M977 1556 c-50 -46 -84 -154 -73 -230 5 -33 3 -48 -9 -60 -21 -21
-28 -20 -51 5 -29 33 -114 92 -159 112 -51 23 -153 20 -168 -4 -17 -28 3 -72
57 -125 60 -58 140 -94 210 -94 82 0 104 -9 147 -64 22 -28 51 -57 64 -64 21
-11 26 -10 35 9 9 16 7 30 -14 69 -34 65 -33 81 9 135 45 59 58 112 53 207 -7
118 -44 157 -101 104z"/>
<path d="M3802 1535 c-42 -87 -22 -216 45 -295 39 -45 41 -71 8 -125 -30 -48
-31 -71 -6 -84 19 -11 19 -11 124 100 9 11 23 19 30 19 66 3 164 22 199 39 54
26 144 112 152 146 12 49 -7 65 -78 65 -91 0 -153 -29 -232 -108 -23 -22 -41
-32 -56 -30 -21 3 -23 9 -28 93 -6 94 -19 130 -69 192 -37 47 -62 43 -89 -12z"/>
<path d="M2382 354 c-15 -10 -23 -30 -28 -64 -8 -63 -20 -67 -144 -46 -86 15
-94 15 -111 0 -22 -20 -25 -47 -6 -62 18 -14 113 -39 179 -47 65 -8 73 -15 82
-68 5 -27 14 -41 32 -49 35 -16 56 -1 71 52 7 24 14 45 16 47 3 2 33 8 68 14
116 18 196 47 203 72 8 29 -28 60 -64 54 -14 -2 -57 -10 -97 -18 -95 -17 -123
-6 -123 49 0 36 -12 56 -46 75 -6 3 -20 -1 -32 -9z"/>
</g>
</svg>
